<svg xmlns="http://www.w3.org/2000/svg" width="30" height="30" fill-rule="evenodd" viewBox="0 0 30 30"><path d="M10.922 6.448c-3.92 -0.714 -7.02 0.033 -8.256 2.173 -0.922 1.597 -0.659 3.714 0.639 5.977a0.403 0.403 0 0 0 0.549 0.149 0.403 0.403 0 0 0 0.149 -0.549c-1.169 -2.039 -1.396 -3.866 -0.64 -5.175 1.031 -1.777 3.791 -2.444 7.416 -1.784a0.403 0.403 0 0 0 0.467 -0.323 0.403 0.403 0 0 0 -0.323 -0.467zM5.344 17.344c1.585 1.742 3.645 3.376 5.993 4.732C17.029 25.359 23.083 26.241 26.063 24.206a0.403 0.403 0 0 0 0.105 -0.559 0.403 0.403 0 0 0 -0.559 -0.105c-2.67 1.821 -8.422 0.987 -13.875 -2.159 -2.278 -1.315 -4.273 -2.898 -5.801 -4.577a0.403 0.403 0 0 0 -0.568 -0.027 0.403 0.403 0 0 0 -0.027 0.568zm19.771 -0.484c2.567 -3.033 3.463 -6.083 2.23 -8.217 -0.907 -1.571 -2.825 -2.401 -5.374 -2.434a0.403 0.403 0 0 0 -0.407 0.397 0.403 0.403 0 0 0 0.397 0.407c2.297 0.03 3.945 0.744 4.688 2.032 1.024 1.774 0.225 4.493 -2.148 7.297a0.403 0.403 0 0 0 0.047 0.567 0.403 0.403 0 0 0 0.567 -0.047zM18.517 6.581c-2.32 0.497 -4.792 1.47 -7.164 2.839C5.483 12.81 1.653 17.813 2.184 21.431a0.403 0.403 0 0 0 0.456 0.339 0.403 0.403 0 0 0 0.339 -0.456c-0.472 -3.217 3.158 -7.955 8.775 -11.203 2.297 -1.329 4.694 -2.27 6.93 -2.75a0.403 0.403 0 0 0 0.309 -0.477 0.403 0.403 0 0 0 -0.477 -0.309z"/><path d="M9.007 23.945C10.349 27.692 12.545 30 15.014 30c1.801 0 3.467 -1.228 4.766 -3.389a0.403 0.403 0 0 0 -0.137 -0.552 0.403 0.403 0 0 0 -0.552 0.137c-1.172 1.942 -2.602 2.999 -4.077 2.999 -2.051 0 -4.009 -2.063 -5.25 -5.522a0.403 0.403 0 0 0 -0.514 -0.243 0.403 0.403 0 0 0 -0.243 0.514m12.259 -0.733c0.695 -2.22 1.068 -4.781 1.068 -7.451 0 -6.66 -2.331 -12.401 -5.651 -13.875a0.403 0.403 0 0 0 -0.531 0.204 0.403 0.403 0 0 0 0.204 0.531C19.318 3.935 21.53 9.384 21.53 15.761c0 2.589 -0.361 5.07 -1.031 7.211a0.403 0.403 0 0 0 0.263 0.504 0.403 0.403 0 0 0 0.504 -0.263zm7.571 -0.394c0 -1.063 -0.862 -1.924 -1.924 -1.924S24.984 21.75 24.984 22.818s0.862 1.924 1.924 1.924 1.924 -0.862 1.924 -1.924zm-0.804 0a1.12 1.12 0 0 1 -1.12 1.12 1.12 1.12 0 0 1 -1.12 -1.12 1.12 1.12 0 0 1 1.12 -1.12 1.12 1.12 0 0 1 1.12 1.12"/><path d="M3.086 24.742a1.924 1.924 0 0 0 0 -3.848 1.922 1.922 0 1 0 0 3.848zm0 -0.804a1.12 1.12 0 0 1 -1.12 -1.12 1.12 1.12 0 0 1 1.12 -1.12 1.12 1.12 0 0 1 1.12 1.12 1.12 1.12 0 0 1 -1.12 1.12M15.014 3.844c1.063 0 1.924 -0.862 1.924 -1.924S16.076 0 15.014 0s-1.924 0.862 -1.924 1.924S13.951 3.844 15.014 3.844m0 -0.804a1.12 1.12 0 0 1 -1.12 -1.12 1.12 1.12 0 0 1 1.12 -1.12 1.12 1.12 0 0 1 1.12 1.12 1.12 1.12 0 0 1 -1.12 1.12m0.293 14.081a1.392 1.392 0 1 1 -0.588 -2.722 1.392 1.392 0 1 1 0.588 2.722"/></svg>